<svg id="Capa_1" data-name="Capa 1" xmlns="http://www.w3.org/2000/svg" viewBox="0 0 1198.34 572.69"><defs><style>.cls-1{fill:#fff;}</style></defs><path class="cls-1" d="M395.37,152.79c18.15-9.32,25.31-28,16.09-41.7l-.2-.2C402,97.16,379.86,93.62,361.71,103L233.56,168.79V82.93c0-11.87-7.16-21.39-15.9-21.39H192.25c-8.73,0-15.9,9.52-15.9,21.39V198.22L59.78,258.08c-18.15,9.32-25.31,28-16.09,41.7l.2.2a28.84,28.84,0,0,0,10.89,9.32A36.3,36.3,0,0,0,65.18,317l111.17,56.82V492.89c0,11.87,7.17,21.39,15.9,21.39h25.41c8.74,0,15.9-9.52,15.9-21.39V403l120.1,61.32c17.37,8.84,38.86,4.91,48.08-8.83l.1-.29c9.23-13.74,2.65-32-14.72-40.82l-153.56-78.5v-100Zm-219,154L135.93,286l40.42-20.7Z"/><path class="cls-1" d="M486.22,352.78v52.05h662.47V352.88c0-22.29-16.65-40.36-37.2-40.36H523.33C502.84,312.52,486.22,330.54,486.22,352.78Z"/><path class="cls-1" d="M1148.69,424.17H486.22v55.12a37.2,37.2,0,0,0,37.2,37.19h588.07a37.19,37.19,0,0,0,37.2-37.19Z"/><circle class="cls-1" cx="817.46" cy="224.12" r="38.91"/><circle class="cls-1" cx="817.46" cy="123.11" r="38.91"/></svg>